<svg version="1.1" id="logo" xmlns:x="&amp;ns_extend;" xmlns:i="&amp;ns_ai;" xmlns:graph="&amp;ns_graphs;" xmlns="http://www.w3.org/2000/svg" xmlns:xlink="http://www.w3.org/1999/xlink" x="0px" y="0px" viewBox="0 0 200 200" style="enable-background:new 0 0 200 200;" xml:space="preserve" class="animate" width="200"  height="200" >
				<path class="logo-path circle" d="M99.9,7.8C49.2,7.8,8.1,48.9,8.1,99.6s41.1,91.8,91.8,91.8s91.8-41.1,91.8-91.8C191.7,48.9,150.6,7.8,99.9,7.8
	 M99.9,183.7c-46.4,0-84.1-37.6-84.1-84.1s37.6-84.1,84.1-84.1c46.4,0,84.1,37.6,84.1,84.1S146.3,183.7,99.9,183.7" fill="#800020"></path>
				<path class="logo-path sukoon parts" d="M43.2,81.1c0.5,0.3,1.2,0.6,1.9,0.9c0.7,0.2,1.4,0.5,2.2,0.9h0.3c1.4-1.2,2.3-2.3,2.8-3.5s0.8-2.3,0.8-3.2
	c0-0.4-0.1-0.8-0.2-1.1c-0.1-0.3-0.2-0.5-0.3-0.7c-0.2-0.5-0.7-1-1.4-1.7s-1.3-1.2-1.7-1.5c-0.7-0.6-1.1-1.1-1.1-1.4h-0.4
	c-0.5,0.4-1.2,1-1.8,1.7c-0.7,0.7-1.3,1.7-1.9,2.7c-0.3,0.5-0.6,1.2-0.8,1.9c-0.2,0.7-0.3,1.3-0.3,1.7c0,0.9,0.2,1.7,0.5,2.1
	C42.2,80.4,42.7,80.8,43.2,81.1 M43.9,74.4c0.2-0.4,0.5-0.8,1-1.3H45c0.1,0.2,0.2,0.5,0.5,0.9c0.2,0.4,0.8,1,1.7,1.7
	c0.4,0.3,0.8,0.7,1.2,1s0.6,0.8,0.6,1.4c0,0.4-0.1,0.9-0.3,1.5c-0.6-0.3-1.2-0.5-1.8-0.8c-0.6-0.2-1.3-0.5-1.9-0.9
	c-0.9-0.6-1.4-1.3-1.4-2.1C43.4,75.4,43.6,74.9,43.9,74.4" fill="#800020"></path>
				<path class="logo-path fatha2 parts" d="M120.2,60.2c0.6-0.3,1.6-0.6,2.9-1c0.9-0.3,1.9-0.5,3-0.8c1-0.3,2.3-0.5,3.6-0.8c2-0.4,3.9-0.8,5.9-1.3
	c2-0.4,4-0.9,5.9-1.4l1.6-3.8l-0.2-0.3c-0.7,0.3-2,0.6-3.8,1s-3.6,0.8-5.5,1.3c-1.6,0.4-3.2,0.8-4.8,1.3c-1.7,0.4-3.1,0.8-4.2,1.2
	c-0.9,0.3-1.6,0.7-2.2,1s-1.3,0.7-2,1.3c-0.3,0.3-0.7,0.7-1.2,1.2s-0.8,1-1.1,1.5l0.4,0.5C119.1,60.8,119.6,60.5,120.2,60.2" fill="#800020"></path>
				<path class="logo-path fatha1 parts" d="M149.6,66.7c1-0.4,2.7-0.8,5-1.3l5.8-1.3l1.6-3.7l-0.3-0.4c-2.1,0.7-4.1,1.3-5.9,1.7c-1.9,0.4-3.7,1-5.5,1.9
	c-0.5,0.3-1.1,0.9-1.8,1.6c-0.6,0.7-1.2,1.5-1.7,2.2l0.4,0.4C147.7,67.5,148.5,67.1,149.6,66.7" fill="#800020"></path>
				<path class="logo-path" d="M132.4,65.7c-0.7,0.7-1,1.5-1,2.5c0,0.9,0.3,1.8,1,2.5s1.5,1.1,2.5,1.1c0.9,0,1.8-0.4,2.4-1.1
	c0.7-0.7,1-1.5,1-2.5c0-0.9-0.3-1.8-1-2.5s-1.5-1.1-2.4-1.1C133.9,64.6,133.1,64.9,132.4,65.7" fill="#800020"></path>
				<path class="logo-path" d="M126.4,64.6c-1,0-1.9,0.4-2.5,1.1s-1,1.5-1,2.5c0,0.9,0.3,1.8,1,2.5s1.5,1.1,2.5,1.1c0.9,0,1.8-0.4,2.5-1.1
	s1.1-1.5,1.1-2.5c0-0.9-0.4-1.8-1.1-2.5C128.2,64.9,127.3,64.6,126.4,64.6" fill="#800020"></path>
				<path class="logo-path" d="M163.9,98c-1.2-2.5-2.8-5.2-4.7-8.2c-0.5-0.8-0.9-1.5-1.1-2.2c-0.2-0.6-0.3-1.2-0.3-1.8c0-0.3,0.1-0.7,0.2-1
	c0.1-0.3,0.2-0.6,0.3-0.7l-0.6-0.3c-0.2,0.3-0.4,0.8-0.7,1.3s-0.6,1-0.9,1.5c-0.7,1-1.6,2.2-2.5,3.6s-1.4,2.6-1.4,3.8
	c0,1.6,0.5,3,1.5,4.2s2,2.5,3.2,4c1,1.3,1.9,2.6,2.7,4s1.2,2.8,1.2,4.2c0,0.9-0.2,1.8-0.7,2.6H160c-0.9-2.9-2.3-4.9-4.1-5.9
	s-3.4-1.5-4.9-1.5l0,0l0,0c-0.8,0-1.8-0.1-2.9-0.2c-1.1-0.1-2.3-0.4-3.6-0.9c0.1-0.9,0.3-1.9,0.4-2.8c0.1-0.9,0.2-1.8,0.2-2.6
	c0-2.8-0.5-5.1-1.4-7s-1.9-3.6-2.9-5c-1.6-2.2-2.7-3.9-3.5-5.2c-0.7-1.3-1.1-2.5-1.1-3.7c0-0.7,0.1-1.4,0.3-1.9s0.5-1.1,0.8-1.6
	l-0.5-0.4c-0.7,0.7-1.7,1.7-2.8,3c-1.2,1.3-1.9,2.4-2.3,3.5c-1.9,2.3-3.6,4.8-5.1,7.4c-1.5,2.6-2.3,5.2-2.3,7.7
	c0,2.2,0.8,4.4,2.3,6.3c1.6,2,3.5,3.7,5.9,5.2l3.3,2l-0.4,0.5c-0.8-0.5-1.7-1.1-2.7-1.6s-2.1-1-3.1-1.4c-1.1-0.4-2.2-0.7-3.3-1
	c-1.1-0.3-2.1-0.4-2.9-0.4h-0.8l0,0l0,0h-3.1c-0.3-2-0.8-3.7-1.7-5.1c-0.9-1.4-2-2.6-3.4-3.5s-2.9-1.6-4.7-2
	c-1.8-0.4-3.6-0.7-5.5-0.7H88.4c-3.6,0-6.1-0.6-7.6-1.7c-1.5-1.2-2.5-3-3-5.7h-0.5l-4,8.6c0.1,1.2,0.4,2.1,0.8,3
	c0.4,0.8,1,1.6,1.8,2.2s1.9,1.1,3.3,1.4s3,0.5,5.1,0.5h21.2c1,0,2.1,0.1,3.4,0.3c1.3,0.2,2.4,0.6,3.6,1.2c1.1,0.6,2.1,1.4,2.8,2.5
	c0.8,1.1,1.2,2.5,1.2,4.4h-0.2c-0.1-0.3-0.4-0.8-0.8-1.4s-0.9-1.2-1.6-1.8c-0.7-0.6-1.5-1.1-2.4-1.5s-2.1-0.6-3.5-0.6H84.2
	c-1.8,0-3.4,0-4.8-0.1c-1.5-0.1-2.7-0.3-3.8-0.6c-1-0.3-1.9-0.9-2.6-1.7c-0.7-0.8-1.2-1.9-1.4-3.3h-0.4L64.6,114l0.2,0.2h46.9
	c1.2,0,2.2,0.3,3,0.9c0.9,0.6,1.3,1.4,1.3,2.6h0.5c0.1-0.3,0.3-0.8,0.6-1.4c0.3-0.6,0.6-1.3,0.9-2.1h4.1l0,0l0,0
	c2.4,0,4.5,0.1,6.1,0.3c1.6,0.2,3,0.5,4,0.9s1.9,0.9,2.4,1.5c0.6,0.6,1.1,1.3,1.5,2.1h0.5c1-1.2,1.9-2.4,2.6-3.8
	c0.7-1.4,1.3-2.4,1.6-3c1.8,0.7,3.5,1.2,5.2,1.5s3.3,0.5,4.6,0.5l0,0l0,0c1.9,0,3.4,0.6,4.6,1.7c1.2,1.1,2.1,2.7,2.7,4.8h0.5
	c0.6-0.9,1.3-1.9,2.1-3.2c0.8-1.3,1.6-2.5,2.3-3.9c0.7-1.3,1.3-2.6,1.8-3.9s0.8-2.4,0.8-3.5C165.7,103.2,165.1,100.4,163.9,98
	 M140.1,102.5c-0.9-0.5-1.9-1.1-2.7-1.8c-1.1-0.8-2.1-1.7-3.1-2.6s-1.8-1.8-2.6-2.8c-0.7-0.9-1.3-1.9-1.8-2.8
	c-0.4-0.9-0.7-1.8-0.7-2.6c0-0.9,0.2-1.8,0.6-2.5c0.4-0.7,0.7-1.2,0.9-1.6h0.2v0.5c0,0.6,0.2,1.3,0.6,2.1c0.4,0.8,0.9,1.7,1.5,2.5
	c0.6,0.9,1.2,1.7,1.9,2.6c0.7,0.8,1.3,1.6,1.9,2.3c0.5,0.7,1.2,1.6,1.9,2.6c0.7,1.1,1.2,2.4,1.6,4h-0.2V102.5z" fill="#800020"></path>
				<path class="logo-path" d="M154.3,73.8c-0.7,0.7-1,1.5-1,2.5c0,0.9,0.3,1.8,1,2.5s1.5,1.1,2.5,1.1c0.9,0,1.8-0.4,2.4-1.1
	c0.7-0.7,1-1.5,1-2.5c0-0.9-0.3-1.8-1-2.5s-1.5-1.1-2.4-1.1C155.8,72.7,155,73.1,154.3,73.8" fill="#800020"></path>
				<path class="logo-path" d="M148.3,79.8c0.9,0,1.8-0.4,2.5-1.1s1.1-1.5,1.1-2.5c0-0.9-0.4-1.8-1.1-2.5c-0.7-0.7-1.5-1.1-2.5-1.1
	s-1.9,0.4-2.5,1.1c-0.7,0.7-1,1.5-1,2.5c0,0.9,0.3,1.8,1,2.5S147.3,79.8,148.3,79.8" fill="#800020"></path>
				<path class="logo-path" d="M58.9,112.5c0.6,0.7,0.9,1.4,1.1,1.8h0.5c2.6-2.6,4.4-5,5.4-7.4c1-2.3,1.5-4.7,1.5-7.1c0-1.8-0.3-3.4-0.8-5
	s-1.2-3-2-4.1c-1-1.4-2.1-2.8-3.4-4.2s-2.5-2.7-3.8-4c-0.6-0.7-1-1.5-1.2-2.2s-0.3-1.4-0.3-2c0-1.3,0.3-2.4,0.8-3.4L56,74.6
	c-0.5,0.9-1,1.9-1.5,3.1S53.6,80,53.3,81c-0.9,1.8-1.9,3.6-2.7,5.4s-1.7,3.6-2.4,5.4c-0.3,0.8-0.7,1.8-1.1,2.8
	c-0.4,1.1-0.6,2.1-0.6,3c0,1.5,0.1,2.7,0.4,3.6c0.3,0.9,0.4,2,0.4,3.4s-0.7,3.1-2.2,5s-3.5,3.7-6.1,5.3c-2,1.3-4.1,2.4-6.6,3.5
	c-2.4,1-4.8,1.8-7.2,2.4l0.1,1c1.3-0.1,2.8-0.2,4.6-0.4c1.8-0.2,3.5-0.5,5.2-0.8s3.4-0.8,4.9-1.4c1.6-0.6,2.8-1.3,3.8-2.1
	c2-1.8,3.4-3.7,4.2-5.9c0.7-2.2,1.4-4.3,1.9-6.3c0.9,0.7,1.8,1.5,2.9,2.2c1.1,0.7,2,1.4,2.9,2.2C57.2,110.7,58.3,111.7,58.9,112.5
	 M53.5,95.7c-1.5-1.5-2.2-3.1-2.2-4.8c0-0.3,0.1-0.8,0.2-1.3c0.1-0.5,0.4-1,0.7-1.4h0.2c0.1,0.3,0.2,0.9,0.5,1.6s0.9,1.6,1.8,2.6
	c0.9,0.9,1.7,1.8,2.6,2.6c0.8,0.8,1.6,1.5,2.4,2.2c0.9,0.9,1.7,1.8,2.4,2.8s1.1,2.2,1.1,3.7c0,0.3-0.1,0.8-0.2,1.3h-0.3
	c-0.3-0.6-0.8-1.3-1.5-2.2c-0.7-0.8-1.6-1.7-2.4-2.5c-0.9-0.8-1.8-1.7-2.7-2.5S54.2,96.3,53.5,95.7" fill="#800020"></path>
				<path class="logo-path dammeh parts" data-order="3" d="M81.2,75.4c0.7-0.2,1.5-0.4,2.3-0.6s1.5-0.4,2.3-0.6c0.7-0.2,1.3-0.4,1.7-0.6c0.8-0.5,1.4-1.1,1.7-1.9
	c0.4-0.8,0.6-1.5,0.6-2.2c0-0.9-0.2-1.7-0.6-2.3c-0.4-0.6-0.9-1.2-1.4-1.7s-0.8-0.9-1.2-1.3c-0.3-0.4-0.5-0.8-0.5-1.1
	c0-0.1,0-0.2,0.1-0.3l-0.4-0.3c-0.1,0.1-0.4,0.4-0.7,0.9c-0.4,0.5-0.8,1.1-1.1,1.7c-0.4,0.6-0.8,1.3-1.1,1.9
	c-0.3,0.7-0.5,1.2-0.5,1.6c0,1,0.7,1.6,2.1,1.7c0.9,0.1,1.8,0.2,2.6,0.2c0.9,0,1.3,0.2,1.3,0.5s-0.7,0.5-2,0.8
	c-1.3,0.2-2.8,0.7-4.5,1.4c-0.4,0.2-0.9,0.6-1.4,1.2s-0.9,1.1-1.1,1.4l0.3,0.3C79.9,75.9,80.5,75.7,81.2,75.4 M86.9,68.1
	c-0.2,0-0.5-0.1-0.9-0.1c-0.7,0-1.2-0.1-1.4-0.4c-0.3-0.3-0.4-0.5-0.4-0.6c0-0.2,0.1-0.4,0.3-0.7c0.2-0.3,0.4-0.6,0.6-0.9h0.3
	c0,0.6,0.2,1.1,0.6,1.5s0.8,0.7,1.1,0.9v0.3H86.9z" fill="#800020"></path>
				<path class="logo-path shaddeh parts" d="M81.9,85.5h0.4c0.3-0.3,0.7-0.7,1.1-1.3c0.5-0.6,0.9-1.1,1.1-1.5l1.2,0.9c0.4,0.3,0.7,0.6,0.9,0.9H87
	c0.3-0.3,0.7-0.6,1.1-1.1c0.5-0.4,0.9-0.9,1.3-1.4s0.8-1,1.1-1.5c0.3-0.5,0.4-0.9,0.4-1.3c0-0.5-0.1-1.1-0.3-1.7
	c-0.2-0.6-0.3-1.1-0.3-1.4v-0.4c0-0.1,0-0.3,0.1-0.4L90,75.1c-0.4,0.3-0.8,0.6-1.3,1.1C88.3,76.6,88,77,88,77.4s0.1,0.9,0.3,1.4
	c0.2,0.6,0.3,1.1,0.3,1.7c0,0.4-0.2,0.9-0.7,1.4c-0.6-0.7-1.2-1.3-2-1.9v-0.3c0-0.5-0.1-1-0.3-1.4c-0.2-0.4-0.3-0.8-0.3-1.2
	c0-0.5,0-0.8,0.1-0.9L85,76c-0.4,0.3-0.8,0.7-1.2,1.1c-0.4,0.4-0.6,0.8-0.6,1.2c0,0.6,0.2,1.1,0.5,1.7c0.3,0.5,0.5,1,0.5,1.4
	c0,0.2-0.1,0.5-0.3,0.8c-0.2,0.3-0.5,0.6-0.7,0.9c-1-0.8-1.6-1.4-2-2c-0.3-0.5-0.5-1.3-0.5-2.4c0-0.3,0.1-0.7,0.2-1.1l-0.4-0.2
	c-0.4,0.3-0.8,0.8-1.2,1.4c-0.4,0.6-0.6,1.3-0.6,2.1c0,1.1,0.4,2,1.1,2.7C80.4,84.3,81.1,84.9,81.9,85.5" fill="#800020"></path>
				<polygon class="logo-path" points="44.8,128.3 49,128.3 49,139.1 50.8,139.1 50.8,128.3 55.1,128.3 55.1,126.7 44.8,126.7 " fill="#800020"></polygon>
				<path class="logo-path" d="M62.5,126.7l-5.3,12.4H59l1.5-3.6h5.3l1.6,3.6h1.8l-5.5-12.4C63.7,126.7,62.5,126.7,62.5,126.7z M61.3,133.8
	l1.8-4.5l2,4.5H61.3z" fill="#800020"></path>
				<polygon class="logo-path" points="83.4,126.7 81.2,126.7 76,132.4 76,126.7 74.2,126.7 74.2,139.1 76,139.1 76,133 82.3,139.1 
	84.7,139.1 78,132.6 " fill="#800020"></polygon>
				<path class="logo-path" d="M93.6,126.7l-5.3,12.4h1.8l1.5-3.6h5.3l1.6,3.6h1.8l-5.5-12.4C94.8,126.7,93.6,126.7,93.6,126.7z M92.3,133.8
	l1.8-4.5l2,4.5H92.3z" fill="#800020"></path>
				<path class="logo-path" d="M113.4,127.5c-1-0.5-2.3-0.8-4-0.8h-4.2V139h3.9c1.1,0,1.8,0,2.2-0.1c0.4-0.1,0.8-0.2,1.3-0.4
	c0.8-0.3,1.5-0.7,2.1-1.3s1-1.2,1.4-2s0.5-1.5,0.5-2.4c0-1.2-0.3-2.2-0.9-3.2C115.2,128.7,114.4,128,113.4,127.5 M113.5,136.1
	c-0.3,0.3-0.6,0.5-0.9,0.7s-0.7,0.3-1.2,0.5c-0.5,0.1-1.2,0.2-2.1,0.2H107v-9.2h2.2c0.8,0,1.5,0,1.8,0.1c0.4,0.1,0.8,0.2,1.2,0.4
	c0.4,0.2,0.8,0.5,1.1,0.8c0.9,0.8,1.3,1.9,1.3,3.2C114.8,134.2,114.4,135.3,113.5,136.1" fill="#800020"></path>
				<path class="logo-path" d="M128.5,126.6c-1.9,0-3.5,0.6-4.7,1.8s-1.9,2.7-1.9,4.6c0,1.8,0.6,3.3,1.9,4.5c1.2,1.2,2.8,1.8,4.6,1.8
	c1.9,0,3.6-0.6,4.8-1.8c1.3-1.2,1.9-2.7,1.9-4.5s-0.6-3.3-1.9-4.5C132,127.2,130.4,126.6,128.5,126.6 M131.9,136.2
	c-0.9,0.9-2.1,1.3-3.4,1.3c-1.4,0-2.5-0.4-3.4-1.3c-0.9-0.9-1.4-2-1.4-3.3c0-1.4,0.5-2.5,1.4-3.4s2.1-1.3,3.5-1.3
	c1.3,0,2.5,0.4,3.4,1.3c0.9,0.9,1.4,2,1.4,3.3C133.3,134.2,132.9,135.3,131.9,136.2" fill="#800020"></path>
				<polygon class="logo-path" points="146.6,131.8 142.5,126.7 140.9,126.7 140.9,139.1 142.6,139.1 142.6,129.5 146.5,134.2 146.8,134.2 
	150.6,129.5 150.6,139.1 152.3,139.1 152.3,126.7 150.7,126.7 " fill="#800020"></polygon>
			</svg>